<?xml version="1.0" standalone="no"?><!DOCTYPE svg PUBLIC "-//W3C//DTD SVG 1.1//EN" "http://www.w3.org/Graphics/SVG/1.1/DTD/svg11.dtd"><svg t="1573614947249" class="icon" viewBox="0 0 1024 1024" version="1.1" xmlns="http://www.w3.org/2000/svg" p-id="5681" xmlns:xlink="http://www.w3.org/1999/xlink" width="64" height="64"><defs><style type="text/css"></style></defs><path d="M281.088 19.456c11.776 12.288 12.8 27.136 12.8 30.72v520.192c0 22.528-9.216 36.864-16.896 44.544-17.408 17.92-41.984 17.92-44.544 17.92H80.384C40.96 632.832 26.112 600.576 25.6 578.56v-1.536L57.344 60.416C57.856 19.968 90.624 5.12 112.64 5.12h131.584c19.456 0 30.72 7.68 36.864 14.336z m-32.768 31.232v-0.512 0.512zM80.384 586.24h152.064c0.512 0 8.192-0.512 12.288-4.608 0.512-0.512 3.072-3.072 3.072-11.264V52.224c-1.024-0.512-2.048-0.512-4.096-0.512H112.64c-9.728 0.512-9.728 6.144-9.728 9.728v1.536L71.68 578.56c0.512 7.68 5.632 7.68 8.704 7.68zM900.608 117.76v0.512c49.152 169.472 72.192 276.48 82.944 336.384 9.216 52.736 12.8 79.36 11.776 93.696 0 33.792-13.312 53.248-24.576 64-24.064 22.528-55.808 22.016-62.976 21.504h-223.232c36.352 152.064 32.256 263.68-13.312 331.264-34.304 50.688-79.872 56.832-81.92 56.832h-2.56c-77.312 0-81.408-57.856-82.432-76.8-0.512-2.048-0.512-3.584-0.512-4.608-1.024-2.56-1.536-5.632-1.536-8.192 0-166.4-177.664-302.08-179.2-303.616-5.632-4.608-9.216-11.776-9.216-18.944V97.28c0-65.024 76.288-92.16 117.248-92.16h381.44c47.616 0 76.8 78.336 88.064 112.64z m-352.256 811.52c1.024 4.096 1.024 8.704 1.536 13.312 1.536 18.944 2.048 32.768 34.816 33.28 5.12-1.024 29.184-7.68 49.152-38.4 26.624-41.984 48.64-131.584-2.048-321.024-1.536-7.168-0.512-14.848 4.096-20.48s11.264-9.216 18.432-9.216h255.488c5.12 0.512 19.968-0.512 29.184-9.216 6.656-6.144 9.728-16.384 9.728-29.696v-0.512c0-5.12-3.072-104.96-93.184-416.256-11.264-37.888-32.768-76.8-43.008-79.36H431.104c-19.456 0-71.168 14.336-71.168 45.568v501.248c38.912 32.256 185.856 163.328 188.416 330.752z m329.216-805.376zM505.344 944.128z" p-id="5682"></path></svg>