<?xml version="1.0" standalone="no"?><!DOCTYPE svg PUBLIC "-//W3C//DTD SVG 1.1//EN" "http://www.w3.org/Graphics/SVG/1.1/DTD/svg11.dtd"><svg t="1573614928236" class="icon" viewBox="0 0 1024 1024" version="1.1" xmlns="http://www.w3.org/2000/svg" p-id="5367" xmlns:xlink="http://www.w3.org/1999/xlink" width="64" height="64"><defs><style type="text/css"></style></defs><path d="M244.224 1021.952H112.64c-22.016 0-54.784-14.848-55.296-55.296L25.6 450.048v-1.536C26.112 426.496 40.96 394.24 80.384 394.24h152.064c2.56 0 27.136 0 44.544 17.92 7.68 7.68 16.896 22.016 16.896 44.544v520.192c0 3.584-1.024 18.432-12.8 30.72-6.144 6.656-17.408 14.336-36.864 14.336z m4.096-45.568v0zM71.68 448.512l31.232 515.584v1.536c0 3.584 0 9.216 9.728 9.728h131.072c2.048 0 3.072 0 4.096-0.512V456.704c0-8.192-2.56-10.752-3.072-11.264-4.096-4.096-11.776-4.608-12.288-4.608H80.384c-3.072 0-8.192 0-8.704 7.68zM812.544 1021.952H431.104c-40.96 0-117.248-27.136-117.248-92.16V417.28c0-7.168 3.584-14.336 9.216-18.944 1.536-1.536 179.2-137.216 179.2-303.616 0-2.56 0.512-5.632 1.536-8.192 0-1.024 0-2.56 0.512-4.608 1.024-18.944 5.12-76.8 82.432-76.8h2.56c2.048 0 47.616 6.144 81.92 56.832 45.568 67.584 49.664 179.2 13.312 331.264h223.232c7.168-0.512 38.912-1.024 62.976 21.504 11.264 10.752 24.576 30.208 24.576 64 1.024 14.336-2.56 40.96-11.776 93.696-10.752 59.904-33.792 166.912-82.944 336.384v0.512c-11.264 34.304-40.448 112.64-88.064 112.64zM359.936 428.544v501.248c0 31.232 51.712 45.568 71.168 45.568h381.44c10.24-2.56 31.744-41.472 43.008-79.36 90.112-311.296 93.184-411.136 93.184-416.256v-0.512c0-13.312-3.072-23.552-9.728-29.696-9.216-8.704-24.064-9.728-29.184-9.216h-255.488c-7.168 0-13.824-3.584-18.432-9.216-4.608-5.632-5.632-13.312-4.096-20.48 50.688-189.44 28.672-279.04 2.048-321.024-19.968-30.72-44.032-37.376-49.152-38.4-32.768 0.512-33.28 14.336-34.816 33.28-0.512 4.608-0.512 9.216-1.536 13.312-2.56 167.424-149.504 298.496-188.416 330.752z m517.632 474.624zM505.344 82.944z" p-id="5368"></path></svg>